<?xml version="1.0" encoding="UTF-8" standalone="no"?>
<svg
   xmlns="http://www.w3.org/2000/svg"
   height="253.03557"
   width="253.31596"
   viewBox="0 0 253.31597 253.03558">
  <defs
     id="defs4">
    <style
       id="style2">.cls-1{fill:#473192;}</style>
  </defs>
  <path
     style="stroke-width:1.75233"
     id="path6"
     d="m 201.86772,62.8033 a 78.609254,78.609254 0 0 1 -6.37845,-11.10972 c 1.12149,13.24753 5.25695,34.538305 18.36434,61.17363 A 92.873163,92.873163 0 0 0 253.07064,93.591615 V 93.451689 C 225.85708,89.754253 210.27891,75.05226 201.86772,62.80353 Z"
     class="cls-1" />
  <path
     style="stroke-width:1.75233"
     id="path8"
     d="m 187.34097,122.38227 v 0 A 115.2153,115.2153 0 0 1 140.32613,113.02488 99.041343,99.041343 0 0 1 110.27372,92.259841 95.834592,95.834592 0 0 1 90.20966,63.06614 l -4.50347,-2.61098 c 0.42037,7.00929 2.435681,20.80007 10.671635,39.79526 A 239.7179,239.7179 0 0 0 124.415,147.388 h 128.76076 v -45.3502 a 98.498126,98.498126 0 0 1 -18.80243,10.98708 115.30292,115.30292 0 0 1 -47.03236,9.35739 z"
     class="cls-1" />
  <path
     style="stroke-width:1.75233"
     id="path10"
     d="m 79.45037,53.28819 1.55957,-3.15418 14.596887,8.41114 0.403234,1.12149 a 87.966659,87.966659 0 0 0 19.275549,28.159803 v 0 A 66.32546,66.32546 0 0 0 138.3637,81.11508 c 18.03143,-8.76163 32.0325,-24.42738 41.63526,-46.29639 l 0.87616,-1.96263 h 15.22767 a 72.160701,72.160701 0 0 0 11.39009,26.2849 c 10.70672,15.45547 26.05709,24.72526 45.6656,27.63412 L 253.31596,0 H 0.19278 L 0,117.248 c 1.96261,-0.61336 3.96025,-1.27922 5.97543,-1.98013 23.72647,-8.37611 55.72393,-25.934362 73.47494,-61.97968 z"
     class="cls-1" />
  <path
     style="stroke-width:1.75233"
     id="path12"
     d="M 2e-5,130.74085 V 147.388 H 90.612706 A 249.30312,249.30312 0 0 0 31.45425,133.19411 C 20.25687,131.80979 9.60275,131.07382 2e-5,130.74085 Z"
     class="cls-1" />
  <path
     style="stroke-width:1.75233"
     id="path14"
     d="m 2e-5,162.82596 h 31.96239 c 32.99625,0 50.39683,16.36668 50.39683,44.45646 0,29.00094 -16.12136,45.75315 -50.39683,45.75315 H 2e-5 Z m 34.27544,70.49598 c 15.45553,0 23.06058,-9.91816 23.06058,-25.77668 0,-15.21021 -8.25342,-25.00568 -23.06058,-25.00568 h -9.39242 v 50.8174 z"
     class="cls-1" />
  <path
     style="stroke-width:1.75233"
     id="path16"
     d="m 92.277393,162.82596 h 68.042727 v 21.39583 h -43.17725 v 13.79084 h 38.14809 v 18.55705 h -38.14809 v 15.07 h 43.56277 v 21.39589 H 92.277393 Z"
     class="cls-1" />
  <path
     style="stroke-width:1.75233"
     id="path18"
     d="m 172.30606,162.82596 h 23.58626 l 33.76731,51.29052 v -51.29052 h 23.44604 v 90.20961 h -23.44604 l -33.89,-51.02768 v 51.02768 h -23.46357 z"
     class="cls-1" />
</svg>
