<svg enable-background="new 0 0 582 243" height="200.38385" viewBox="0 0 489 200.38385" width="489" xmlns="http://www.w3.org/2000/svg"><path d="m202.8629 59.669987l50.11282-13.086636 17.63195-39.732216-55.63238.555258c6.1383-.0601 8.43636 5.923309 5.1446 13.369343zm1.01063-52.152712l-99.95478 1.004711c6.1383-.06264 8.43636 5.91823 5.13952 13.365111l-35.77855 80.868653 33.31713-.33349c6.13153-.066 13.77479-6.145919 17.07163-13.594489l3.68704-8.33817-36.00285 8.30008 36.46839-9.52656.44691-1.014867.0906-.02031 28.10651-63.524483c6.12984-.06094 8.43467 5.923309 5.14291 13.366804l-12.57709 28.009176c-2.74836 6.178931-8.91967 12.37225-14.88445 15.326287l-3.11655 7.019434 49.38997-12.897036c6.17723-2.800833 12.72521-9.238771 15.58868-15.667398l13.00453-28.973258c3.29684-7.446881.99286-13.431133-5.13952-13.37019m251.08211-2.51728l-64.23718 14.80658 10.69802 27.809419zm-74.81584 8.380492l-2.92949-7.597545-44.42059.444375 6.82476 17.740302zm14.86075 38.631012l-9.52148-24.739422h.008l-2.22018-5.748944-40.95954 9.437681.72709 1.901926 7.75667 20.146699-26.89782 21.408724-32.85244 26.152962 44.42567-.44691 25.60278-20.386239 7.71604 20.05274 44.42312-.44437-18.20837-47.334847zm-193.8322 11.470804l-10.94433 24.675943h.0779l-5.96224 13.481069 33.31628-.33518c6.1383-.0584 13.78071-6.140839 17.07247-13.591959l11.76113-26.509306 11.91772-2.121151-12.93513 29.352467.36143-.83289c-3.2943 7.44857-10.93332 13.531009-17.07078 13.594489l44.38334-.44352c6.13323-.061 13.7714-6.145929 17.07078-13.594499l21.83865-49.22323-61.52776 14.176837-49.35949 11.370925zm74.73966-43.837396l-10.52449 23.699161 50.06626-13.07394 10.63961-23.976789-44.47137.446914z"/><path d="m19.550112 123.90632c3.893572 0 6.816291.57303 8.866342 2.03989 2.254886 1.67593 3.637104 4.18559 3.637104 7.63987 0 6.90601-5.072648 10.15037-10.350131 10.77588-.770251.10665-1.589594.10665-2.205794.10665l-3.585473-.94461v7.58992c0 4.44714.459611 4.75947 4.920291 5.12598v1.67677h-15.221329v-1.67677c3.946897-.36651 4.408201-.73216 4.408201-5.12598v-20.40824c0-4.49877-.46215-4.75947-4.100101-5.12343v-1.67593zm-3.637105 17.68443c.615354.31318 1.794429.57896 3.125862.57896 2.408936 0 6.506498-1.51765 6.506498-8.42789 0-5.85813-3.380637-7.95135-6.866231-7.95135-1.179075 0-1.946786.25985-2.254886.57557-.357193.31318-.511243.88875-.511243 1.88415z"/><path d="m52.24258 157.91752v-1.67508c2.9735-.2624 3.329-.57557 3.329-4.23892v-5.96394h-10.453393v5.96394c0 3.66335.3081 3.97652 3.075076 4.23892v1.67508h-12.400182v-1.67508c3.280758-.20907 3.586319-.57557 3.586319-4.23892v-12.8217c0-3.76407-.305561-4.02731-3.69043-4.28716v-1.62345h12.607558v1.62345c-2.870241.2607-3.177494.47061-3.177494 4.23976v4.5504h10.453396v-4.5504c0-3.71667-.3555-3.97906-3.22574-4.23976v-1.62345h12.45181v1.52018c-3.17749.36397-3.48559.62636-3.48559 4.39127v12.82171c0 3.71667.3081 3.97652 3.48559 4.23891v1.67509h-12.55592z"/><path d="m81.85912 132.59237c8.09863 0 13.27285 5.59997 13.27285 12.66257 0 8.78932-6.45656 13.34142-13.32448 13.34142-8.81132 0-13.42351-6.33214-13.42351-12.5026 0-9.26417 7.17179-13.50054 13.42351-13.50054h.0516zm-.51124 1.8833c-3.3307 0-6.50819 3.66165-6.50819 10.51688 0 6.96188 3.12586 11.72389 7.4308 11.72389 3.43396 0 6.40408-2.7746 6.40408-10.36283 0-6.01642-2.56214-11.87709-7.2759-11.87709h-.0508z"/><path d="m120.85495 151.11477c-.25647 1.88161-1.07581 5.75487-1.38222 6.80275h-21.06169v-1.67508c3.4839-.2624 3.792-.57557 3.792-4.23892v-12.92581c0-3.71413-.25647-3.92151-3.43481-4.13312v-1.67508h19.72941c.0508 1.04788.20314 3.66165.40967 6.17639l-1.63868.10327c-.51463-1.57013-.87267-2.35561-1.43555-3.03445-.66614-.8896-1.63868-1.25525-4.20167-1.25525h-2.20495c-1.38391 0-1.48379.10411-1.48379 1.51764v7.22089h3.22659c2.92187 0 3.28076-.36566 3.68958-2.82538h1.69032v7.95304h-1.69032c-.40882-2.40893-.76771-2.87785-3.68958-2.87785h-3.22659v5.59743c0 2.19733.25563 3.1411.87098 3.55754.66445.41898 1.79104.52563 3.84194.52563 2.25489 0 3.53723-.26324 4.45814-1.30858.71862-.7347 1.38391-1.93663 2.10168-3.66334z"/><path d="m151.44742 134.89466c-2.25488.10665-3.33069.57387-3.53722 2.19732-.15321 1.46433-.3081 3.19358-.3081 6.75197v14.38675h-2.50966l-15.42448-18.7848-.0516.055v7.79476c0 3.66335.15574 5.38752.30725 6.6961.20484 1.62345 1.28065 2.09576 4.04932 2.30229v1.62684h-10.24856v-1.62684c2.20325-.15659 3.27822-.67884 3.48559-2.30229.15321-1.30858.30387-3.03275.30387-6.6961v-7.06514c0-4.34302-.92091-5.07518-4.35318-5.33588v-1.62092h8.4025l13.83742 16.11178h.10072v-5.54242c0-3.55754-.1532-5.28679-.30641-6.59283-.20483-1.78174-1.12744-2.19903-4.05016-2.35561v-1.62092h10.30189v1.62092z"/><path d="m153.90545 157.91752v-1.67508c3.17496-.2624 3.53469-.47231 3.53469-4.08233v-13.18482c0-3.61087-.35973-3.82078-3.53469-4.02985v-1.67508h12.80901v1.62345c-3.22743.2607-3.53384.47061-3.53384 4.13396v13.13234c0 3.61087.30641 3.82078 3.53384 4.08233v1.67508z"/><path d="m183.52369 157.91752v-1.67508l1.27895-.20907c1.12745-.26324 1.38392-.83797.46385-2.30567l-3.58886-5.64822c-1.53458 2.14569-2.61123 3.97652-3.58547 5.75402-.76687 1.30858-.66784 1.93663.61535 2.14654l1.53627.2624v1.67508h-10.35013v-1.67508c2.91848-.41899 3.89357-.78803 5.79126-3.34763 1.48464-1.88669 3.17496-4.18644 4.81703-6.59537l-5.53565-8.68605c-1.33481-2.0399-2.10168-2.35308-4.71376-2.66795v-1.67508h12.39934v1.67508l-1.33313.20907c-.92006.20991-.9717.67968-.35719 1.62345l3.22913 5.17845c1.2798-1.7775 2.35561-3.45343 3.12247-4.81449.81935-1.35597.51463-1.83082-.51124-1.98741l-1.17992-.20907v-1.67508h9.88967v1.67508c-2.97096.31487-3.9452.73386-5.78872 2.8804-1.23071 1.46263-2.66626 3.18934-4.45815 5.75402l5.99272 9.1025c1.74364 2.66879 2.71788 3.24774 5.48401 3.56008v1.67508z"/><path d="m228.61465 132.17339c-.9717-3.296-2.7145-7.06261-6.96696-7.06261-3.2816 0-5.27748 2.4064-5.27748 5.39006 0 3.24267 2.09914 4.91691 6.45656 7.16587 4.86527 2.45972 8.96622 5.23262 8.96622 10.67262 0 5.80735-4.81618 10.36029-12.09462 10.36029-1.94425 0-3.68705-.31318-5.0735-.78295-1.37968-.42236-2.30313-.78548-2.91849-1.09866-.45961-1.25695-1.12744-5.70409-1.48632-8.63527l1.74279-.46723c.92261 3.24183 3.68874 8.94506 8.7106 8.94506 3.43481 0 5.5348-2.30228 5.5348-5.8065 0-3.35101-2.46057-5.28764-6.30166-7.38086-4.56141-2.35561-8.76308-5.12597-8.76308-10.4627 0-5.49417 4.25246-9.89053 11.32437-9.89053 2.92103 0 5.58558.88875 6.86708 1.30774.20314 1.88415.51124 4.13311.9717 7.38086z"/><path d="m253.26181 157.91752c-1.22986-1.52019-5.27749-7.74652-7.12355-10.51688-.81934-1.25695-1.43385-1.31027-2.09829-1.15114v5.91061c0 3.5076.30471 3.87326 3.4822 4.08233v1.67508h-12.3477v-1.67508c2.92103-.10581 3.27737-.52225 3.27737-4.02985v-13.23815c0-3.61086-.30387-3.87326-3.43311-4.08063v-1.62345h12.29861v1.62345c-2.97351.2607-3.27822.47061-3.27822 4.08063v5.70324c.56372-.1058 1.48464-.47231 2.35392-1.25695 2.2041-1.88415 4.71376-4.91859 5.84459-6.38292.8185-1.09866.87097-1.72756-.41052-1.93663l-1.38391-.20737v-1.62345h10.76065v1.62345c-2.61293.2607-4.09756.67968-6.04689 2.45718-1.33312 1.10036-3.6862 3.55754-5.58558 5.5475 2.81776 4.39804 5.73879 8.42535 7.78884 10.82921 1.63953 1.88669 2.66371 2.35561 4.50977 2.51474v1.67508z"/><path d="m288.66877 134.94544c-2.66202.26239-3.38063.78549-4.86866 2.98366-1.07581 1.6717-2.40639 3.92405-4.35318 7.63733-.51463.8896-.6162 1.41184-.6162 2.30313v4.34303c0 3.4018.35889 3.71751 3.99684 4.02985v1.67508h-13.68252v-1.67508c3.68873-.31234 3.94689-.57557 3.94689-3.97653v-3.97906c0-1.20193-.20737-1.67423-.76771-2.6654-1.33566-2.46226-2.66625-4.71122-4.46152-7.6915-1.38392-2.40894-2.04836-2.72212-4.35403-2.98366v-1.67255h11.94057v1.67255l-1.43639.26239c-1.12914.2607-1.12914.73216-.5104 1.83337 1.38053 2.66371 2.92103 5.33504 4.19829 7.68811 1.53796-2.82284 3.02513-5.75402 3.73952-7.37748.66699-1.46262.51463-1.98741-.76686-2.19732l-1.38392-.20907v-1.67255h9.37759v1.6717z"/><path d="m338.01303 125.58055c-4.04677.36651-4.40566.68222-4.40566 5.07773v20.50982c0 4.44375.40883 4.70868 4.40566 5.0718v1.67931h-14.96232v-1.67931c4.20167-.36397 4.61219-.6763 4.61219-5.0718v-9.99717h-15.27042v9.99717c0 4.3955.40882 4.70868 4.35572 5.0718v1.67931h-14.60428v-1.67931c3.84533-.36397 4.3024-.62805 4.3024-5.0718v-20.50982c0-4.45137-.45707-4.71122-4.50639-5.07773v-1.67423h14.65422v1.67423c-3.792.36651-4.20167.68222-4.20167 5.07773v8.00383h15.27042v-8.00383c0-4.39551-.41052-4.71122-4.30493-5.07773v-1.67423h14.65422v1.67423z"/><path d="m356.25865 157.91752v-1.67508l.91923-.10581c1.43639-.26324 1.79527-.67968 1.0775-2.56214l-1.22902-3.2452h-8.19935c-.36143.88959-.77194 1.98741-1.12829 3.34847-.56288 1.78004.0533 2.14569 1.38391 2.35561l1.28319.20907v1.67508h-9.63321v-1.67508c2.35307-.31234 3.32562-.67884 4.71122-4.08233l7.99368-19.14876 2.45887-.47231 8.30262 20.35577c1.07327 2.66879 2.04751 3.13856 4.45899 3.34763v1.67508zm-3.28245-18.67984h-.10326l-3.27737 8.79017h6.55982z"/><path d="m397.50598 158.22985h-1.63954c-5.22923 0-6.81459-1.25441-8.25098-3.40095-1.22733-1.72502-2.35815-3.9215-3.38149-5.70408-.71692-1.30774-1.17907-1.72672-2.76782-1.72672h-.7694v4.76201c0 3.5076.3081 3.82078 3.53722 4.07979v1.67931h-12.70828v-1.67931c3.22913-.20653 3.58547-.46977 3.58547-4.07979v-13.23815c0-3.55754-.3081-3.81824-3.43396-4.02815v-1.62091h12.96475c2.92103 0 4.86866.31318 6.50904 1.25525 1.63869.99456 2.7145 2.76867 2.7145 5.07434 0 3.24521-2.35815 5.33843-5.12344 6.27712.6636 1.25695 2.35815 3.97906 3.58548 5.75487 1.28234 1.88584 2.05005 2.8804 2.92102 3.76915.76941.78548 1.69117 1.20446 2.45888 1.46686zm-15.32121-12.66257c1.48717 0 2.71704-.20907 3.792-.88875 1.17992-.83797 1.79274-2.40894 1.79274-4.23977 0-3.81739-2.35562-5.33504-5.02271-5.33504-1.63869 0-2.05005.41899-2.05005 1.88415v8.57941z"/><path d="m416.1071 144.36535c4.04762.47061 6.91617 2.35053 6.91617 6.12052 0 5.86068-6.61061 7.4308-12.70575 7.4308h-10.91554v-1.62429c3.27991-.25986 3.58462-.46977 3.58462-4.13312v-13.02907c0-3.76661-.30471-3.97653-3.38063-4.23723v-1.62091h13.27115c5.43408 0 8.60734 1.67254 8.60734 5.64907 0 3.40095-3.07254 4.81702-5.37821 5.34012v.10411zm-5.58813-.57727c2.97435 0 5.02525-1.09612 5.02525-4.23722 0-3.40095-2.40893-4.44629-4.66382-4.44629-2.04751 0-2.30821.62636-2.30821 2.24981v6.4337zm-1.94678 8.52862c0 3.19442 1.2324 3.76745 2.97435 3.76745 2.66371 0 5.17337-1.72417 5.17337-5.38836 0-3.66334-2.5596-5.0244-6.24918-5.0244h-1.89854z"/><path d="m441.06067 132.59237c8.09693 0 13.27115 5.59997 13.27115 12.66257 0 8.78932-6.45656 13.34142-13.32109 13.34142-8.81471 0-13.42775-6.33214-13.42775-12.5026 0-9.26417 7.17687-13.50054 13.42775-13.50054h.0499zm-.51209 1.8833c-3.3307 0-6.50904 3.66165-6.50904 10.51688 0 6.96188 3.12586 11.72389 7.4308 11.72389 3.43396 0 6.40492-2.7746 6.40492-10.36283 0-6.01642-2.5596-11.87709-7.27674-11.87709h-.0499z"/><path d="m483.7977 158.22985h-1.63953c-5.22924 0-6.81714-1.25441-8.25353-3.40095-1.22732-1.72502-2.35561-3.9215-3.37894-5.70408-.71947-1.30774-1.17908-1.72672-2.76698-1.72672h-.77025v4.76201c0 3.5076.3081 3.82078 3.53723 4.07979v1.67931h-12.71082v-1.67931c3.22912-.20653 3.58801-.46977 3.58801-4.07979v-13.23815c0-3.55754-.3081-3.81824-3.43396-4.02815v-1.62091h12.96475c2.91848 0 4.86866.31318 6.50734 1.25525 1.63954.99456 2.7145 2.76867 2.7145 5.07434 0 3.24521-2.35561 5.33843-5.12089 6.27712.6636 1.25695 2.35815 3.97906 3.58547 5.75487 1.2798 1.88584 2.05005 2.8804 2.91848 3.76915.76941.78548 1.69371 1.20446 2.46142 1.46686zm-15.3212-12.66257c1.48717 0 2.71449-.20907 3.7903-.88875 1.17993-.83797 1.79528-2.40894 1.79528-4.23977 0-3.81739-2.35561-5.33504-5.02525-5.33504-1.63869 0-2.04751.41899-2.04751 1.88415v8.57941z"/><path d="m5 194.79473v-1.45247c2.756819-.22938 3.066612-.40629 3.066612-3.54061v-11.4378c0-3.13347-.309793-3.31292-3.066612-3.4949v-1.45416h11.113611v1.40845c-2.799987.22769-3.066612.40629-3.066612 3.58548v11.39208c0 3.13348.266625 3.31038 3.066612 3.54061v1.45247h-11.113611z"/><path d="m43.983126 174.82409c-1.956097.0906-2.888861.50024-3.066611 1.907-.135429 1.26965-.265779 2.76783-.265779 5.85221v12.48313h-2.180401l-13.376961-16.2929-.04655.0457v6.76128c0 3.17664.134583 4.67313.268318 5.80988.176058 1.40592 1.109669 1.81559 3.510987 1.99419v1.4093h-8.890042v-1.4093c1.911236-.13374 2.844847-.58827 3.020058-1.99419.135429-1.13675.269165-2.63324.269165-5.80988v-6.1273c0-3.76746-.800722-4.40397-3.780152-4.62912v-1.40846h7.291985l12.000668 13.98047h.08803v-4.8128c0-3.08523-.133735-4.58256-.266625-5.71847-.17775-1.5405-.976779-1.90701-3.513526-2.04074v-1.40846h8.935749v1.40846z"/><path d="m65.85062 179.49807c-.48839-1.95271-.88876-2.86093-1.37714-3.49237-.57981-.63651-1.55659-.8642-3.20204-.8642h-1.7792v14.52049c0 3.27229.26917 3.44919 3.46697 3.67942v1.45247h-11.731499v-1.45247c3.021749-.22938 3.288379-.40628 3.288379-3.67942v-14.52049h-1.20024c-2.354765 0-3.109779.31826-3.733597 1.0428-.48839.63398-.88875 1.63361-1.289958 3.26722h-1.421154c.133736-2.76783.400361-5.17084.444376-6.85354h.976778c.53579.72708.890444.81596 1.956944.81596h13.823031c1.02418 0 1.24594-.17944 1.77919-.81596h1.02164c0 1.58875.22261 4.85766.40205 6.80783l-1.42453.0923z"/><path d="m90.29802 188.89343c-.22261 1.63361-.93361 4.99393-1.19939 5.9013h-18.26932v-1.45247c3.02175-.22938 3.28838-.50024 3.28838-3.67943v-11.2101c0-3.22235-.21923-3.4018-2.97689-3.58293v-1.45417h17.1114c.0474.90907.1786 3.17919.35804 5.3579l-1.42369.088c-.44353-1.35851-.75756-2.04243-1.24595-2.6307-.57726-.77025-1.422-1.0885-3.64387-1.0885h-1.91293c-1.19939 0-1.28742.088-1.28742 1.31619v6.26104h2.80083c2.53336 0 2.844-.31826 3.20035-2.44957h1.46601v6.8984h-1.46601c-.35635-2.08899-.66699-2.49443-3.20035-2.49443h-2.80083v4.85512c0 1.90616.22261 2.72127.75501 3.08692.57981.35889 1.55659.452 3.33493.452 1.95441 0 3.06746-.22769 3.86564-1.13591.62213-.63144 1.19939-1.67678 1.82321-3.17665l1.42285.13797z"/><path d="m116.4332 195.06643h-1.422c-4.53262 0-5.91061-1.0902-7.15655-2.95065-1.06566-1.49818-2.04498-3.40349-2.93288-4.94653-.62213-1.13421-1.02418-1.49987-2.40132-1.49987h-.66783v4.13311c0 3.04038.26832 3.31039 3.06915 3.54062v1.45247h-11.02389v-1.45247c2.80083-.18199 3.11232-.40629 3.11232-3.54062v-11.48265c0-3.08777-.26832-3.31546-2.97858-3.4949v-1.40846h11.2448c2.53421 0 4.22199.27255 5.64738 1.09104 1.422.86336 2.35392 2.4064 2.35392 4.40313 0 2.81522-2.04498 4.62827-4.44376 5.44677.57727 1.08766 2.04244 3.44581 3.11063 4.9897 1.11136 1.63614 1.77919 2.4995 2.53421 3.27144.66614.67715 1.46517 1.04026 2.13215 1.26795zm-13.28978-10.98326c1.28996 0 2.35561-.18198 3.28923-.77279 1.02079-.72454 1.55658-2.08814 1.55658-3.67604 0-3.31292-2.04497-4.63165-4.35657-4.63165-1.422 0-1.77919.3665-1.77919 1.63445v7.44603z"/><path d="m142.74783 174.82409c-1.95525.0906-2.89056.50024-3.06577 1.907-.13543 1.26965-.26662 2.76783-.26662 5.85221v12.48313h-2.17956l-13.3778-16.2929-.0466.0457v6.76128c0 3.17664.13458 4.67313.26578 5.80988.17775 1.40592 1.11221 1.81559 3.51268 1.99419v1.4093h-8.89089v-1.4093c1.91378-.13374 2.84654-.58827 3.02175-1.99419.13459-1.13675.26832-2.63324.26832-5.80988v-6.1273c0-3.76746-.80157-4.40397-3.7793-4.62912v-1.40846h7.29113l11.99898 13.98047h.088v-4.8128c0-3.08523-.1312-4.58256-.26578-5.71847-.17606-1.5405-.97763-1.90701-3.50929-2.04074v-1.40846h8.9332v1.40846z"/><path d="m157.77109 194.79473v-1.45501l.80072-.088c1.2451-.22938 1.55405-.59081.93446-2.22441l-1.06819-2.81269h-7.11254c-.31064.77025-.6636 1.72418-.97678 2.9041-.48839 1.54219.0465 1.86045 1.19939 2.04243l1.11136.17945v1.45501h-8.35595v-1.45501c2.04498-.27001 2.88971-.58827 4.09079-3.53808l6.93056-16.6137 2.13554-.40629 7.20142 17.65397c.93276 2.31498 1.77496 2.72465 3.86649 2.9041v1.45501h-10.75727zm-2.84484-16.20319h-.0906l-2.84146 7.62294h5.68969l-2.75766-7.62294z"/><path d="m188.21798 179.49807c-.48838-1.95271-.88621-2.86093-1.37798-3.49237-.57727-.63651-1.55404-.8642-3.19866-.8642h-1.77919v14.52049c0 3.27229.26663 3.44919 3.46697 3.67942v1.45247h-11.73404v-1.45247c3.02175-.22938 3.28922-.40628 3.28922-3.67942v-14.52049h-1.20108c-2.35392 0-3.10978.31826-3.73275 1.0428-.48839.63398-.88875 1.63361-1.28742 3.26722h-1.42454c.13374-2.76783.40036-5.17084.44692-6.85354h.97677c.53241.72708.88791.81596 1.95441.81596h13.82557c1.02079 0 1.2434-.17944 1.77665-.81596h1.02333c0 1.58875.22261 4.85766.39867 6.80783l-1.42285.0923z"/><path d="m193.41844 194.79473v-1.45247c2.75682-.22938 3.06661-.40629 3.06661-3.54061v-11.4378c0-3.13347-.30979-3.31292-3.06661-3.4949v-1.45416h11.11361v1.40845c-2.80083.22769-3.06661.40629-3.06661 3.58548v11.39208c0 3.13348.26578 3.31038 3.06661 3.54061v1.45247h-11.11361z"/><path d="m220.22146 172.82398c7.02367 0 11.51143 4.85511 11.51143 10.9858 0 7.62548-5.59997 11.57407-11.55714 11.57407-7.64156 0-11.64517-5.49417-11.64517-10.84614 0-8.03685 6.22379-11.71373 11.64517-11.71373h.0457zm-.44353 1.63445c-2.8914 0-5.64737 3.17834-5.64737 9.1245 0 6.03504 2.7128 10.16815 6.44555 10.16815 2.97859 0 5.55596-2.40639 5.55596-8.98907 0-5.21569-2.22018-10.30358-6.31097-10.30358h-.0432z"/><path d="m259.47036 174.82409c-1.95694.0906-2.8914.50024-3.0683 1.907-.13035 1.26965-.26663 2.76783-.26663 5.85221v12.48313h-2.17616l-13.38035-16.2929-.044.0457v6.76128c0 3.17664.13205 4.67313.26578 5.80988.17775 1.40592 1.11221 1.81559 3.51014 1.99419v1.4093h-8.88835v-1.4093c1.91124-.13374 2.844-.58827 3.02175-1.99419.13459-1.13675.26578-2.63324.26578-5.80988v-6.1273c0-3.76746-.79903-4.40397-3.77761-4.62912v-1.40846h7.2886l12.00321 13.98047h.0863v-4.8128c0-3.08523-.13119-4.58256-.26493-5.71847-.1769-1.5405-.97762-1.90701-3.51183-2.04074v-1.40846h8.93575v1.40846z"/><path d="m274.49363 194.79473v-1.45501l.79987-.088c1.2451-.22938 1.55828-.59081.93446-2.22441l-1.06904-2.81269h-7.10915c-.31318.77025-.66699 1.72418-.98017 2.9041-.4867 1.54219.0457 1.86045 1.20193 2.04243l1.10882.17945v1.45501h-8.35425v-1.45501c2.04497-.27001 2.88801-.58827 4.08994-3.53808l6.9331-16.6137 2.13385-.40629 7.20142 17.65397c.93191 2.31498 1.77834 2.72465 3.86564 2.9041v1.45501h-10.75642zm-2.84569-16.20319h-.088l-2.84316 7.62294h5.68885l-2.75766-7.62294z"/><path d="m307.47473 188.48376c-.26493 1.5879-.93446 5.17337-1.19939 6.31012h-17.82664v-1.4093c3.06746-.22515 3.29261-.44945 3.29261-3.58293v-11.43526c0-3.18172-.31318-3.3637-3.06746-3.54315v-1.40845h11.28882v1.40845c-2.97689.17945-3.24436.36143-3.24436 3.54315v11.61724c0 1.58875.17944 2.40386.75502 2.72211.58149.36397 1.68947.45454 3.15633.45454 1.68947 0 2.88886-.27255 3.64387-1.22648.67207-.81596 1.1156-1.8613 1.73518-3.63118z"/><path d="m333.52104 194.79473v-1.45501l.79987-.088c1.2451-.22938 1.55828-.59081.93446-2.22441l-1.06819-2.81269h-7.11001c-.31064.77025-.66698 1.72418-.97931 2.9041-.49009 1.54219.0449 1.86045 1.20192 2.04243l1.11137.17945v1.45501h-8.3551v-1.45501c2.04497-.27001 2.88547-.58827 4.08994-3.53808l6.93056-16.6137 2.13385-.40629 7.20395 17.65397c.93192 2.31498 1.77581 2.72465 3.86564 2.9041v1.45501h-10.75895zm-2.84485-16.20319h-.088l-2.84315 7.62294h5.68884l-2.75766-7.62294z"/><path d="m347.70126 194.79473v-1.45247c2.75766-.22938 3.06492-.40629 3.06492-3.54061v-11.4378c0-3.13347-.30726-3.31292-3.06492-3.4949v-1.45416h11.11192v1.40845c-2.79999.22769-3.06492.40629-3.06492 3.58548v11.39208c0 3.13348.26493 3.31038 3.06492 3.54061v1.45247h-11.11192z"/><path d="m385.39358 195.06643h-1.42115c-4.53432 0-5.91316-1.0902-7.15825-2.95065-1.06566-1.49818-2.04497-3.40349-2.93457-4.94653-.62297-1.13421-1.01995-1.49987-2.39878-1.49987h-.66614v4.13311c0 3.04038.26493 3.31039 3.06492 3.54062v1.45247h-11.02135v-1.45247c2.79999-.18199 3.11063-.40629 3.11063-3.54062v-11.48265c0-3.08777-.26748-3.31546-2.97943-3.4949v-1.40846h11.24819c2.53251 0 4.22114.27255 5.64314 1.09104 1.422.86336 2.35561 2.4064 2.35561 4.40313 0 2.81522-2.04243 4.62827-4.44375 5.44677.57557 1.08766 2.04497 3.44581 3.10809 4.9897 1.11305 1.63614 1.78088 2.4995 2.53505 3.27144.66699.67715 1.4694 1.04026 2.13385 1.26795zm-13.28893-10.98326c1.28742 0 2.35561-.18198 3.28753-.77279 1.02248-.72454 1.55827-2.08814 1.55827-3.67604 0-3.31292-2.04497-4.63165-4.35741-4.63165-1.422 0-1.77835.3665-1.77835 1.63445v7.44603z"/><path d="m399.1726 173.41563c5.15559 0 8.35679 1.99673 8.35679 6.35499 0 4.22199-3.11317 6.40154-7.29114 6.99235-.62128.0906-1.24256.0906-1.86384 0l-2.53505-.68476v3.81231c0 2.94896.26747 3.17919 3.42126 3.45174v1.45247h-11.33199v-1.45247c2.75259-.27255 3.0226-.45199 3.0226-3.45174v-11.34384c0-3.26975-.27001-3.45173-2.84823-3.63118v-1.49902h11.0696zm-3.33409 11.02897c.57896.22684 1.422.45369 2.22272.45369 1.2451 0 4.13312-.63313 4.13312-5.08281 0-3.31208-2.13385-4.81025-4.44375-4.81025-1.78089 0-1.91209.36142-1.91209 1.95271z"/><path d="m423.93149 172.82398c7.02197 0 11.50889 4.85511 11.50889 10.9858 0 7.62548-5.59998 11.57407-11.55629 11.57407-7.64495 0-11.64517-5.49417-11.64517-10.84614 0-8.03685 6.22463-11.71373 11.64517-11.71373zm-.44692 1.63445c-2.88886 0-5.64653 3.17834-5.64653 9.1245 0 6.03504 2.71196 10.16815 6.44641 10.16815 2.97943 0 5.55511-2.40639 5.55511-8.98907 0-5.21569-2.22188-10.30358-6.30928-10.30358h-.0457z"/><path d="m461.88959 195.06643h-1.422c-4.53432 0-5.91316-1.0902-7.15825-2.95065-1.06566-1.49818-2.04498-3.40349-2.93457-4.94653-.62043-1.13421-1.01995-1.49987-2.39793-1.49987h-.66699v4.13311c0 3.04038.26747 3.31039 3.06492 3.54062v1.45247h-11.02135v-1.45247c2.80083-.18199 3.11062-.40629 3.11062-3.54062v-11.48265c0-3.08777-.26747-3.31546-2.97943-3.4949v-1.40846h11.2482c2.53251 0 4.22198.27255 5.64568 1.09104 1.41946.86336 2.35561 2.4064 2.35561 4.40313 0 2.81522-2.04751 4.62827-4.44629 5.44677.57642 1.08766 2.04243 3.44581 3.10809 4.9897 1.11644 1.63614 1.78257 2.4995 2.53759 3.27144.66445.67715 1.46432 1.04026 2.13385 1.26795zm-13.28978-10.98326c1.28742 0 2.35561-.18198 3.28753-.77279 1.02248-.72454 1.55827-2.08814 1.55827-3.67604 0-3.31292-2.04497-4.63165-4.35741-4.63165-1.422 0-1.77835.3665-1.77835 1.63445v7.44603z"/><path d="m482.42649 179.49807c-.49008-1.95271-.89129-2.86093-1.37883-3.49237-.57811-.63651-1.55828-.8642-3.2012-.8642h-1.77581v14.52049c0 3.27229.26494 3.44919 3.46698 3.67942v1.45247h-11.73489v-1.45247c3.02175-.22938 3.28753-.40628 3.28753-3.67942v-14.52049h-1.19939c-2.35561 0-3.11147.31826-3.73445 1.0428-.49008.63398-.88875 1.63361-1.28572 3.26722h-1.42708c.13627-2.76783.40205-5.17084.44691-6.85354h.97932c.53071.72708.88621.81596 1.95441.81596h13.82133c1.02587 0 1.24764-.17944 1.78089-.81596h1.01995c0 1.58875.22261 4.85766.40205 6.80783l-1.422.0923z"/></svg>