<?xml version="1.0" encoding="utf-8"?>
<!-- Generator: Adobe Illustrator 23.0.1, SVG Export Plug-In . SVG Version: 6.00 Build 0)  -->
<svg version="1.1" id="Layer_1" xmlns="http://www.w3.org/2000/svg" xmlns:xlink="http://www.w3.org/1999/xlink" x="0px" y="0px"
	 width="169.26px" height="53.65px" viewBox="0 0 169.26 53.65" style="enable-background:new 0 0 169.26 53.65;"
	 xml:space="preserve">
<style type="text/css">
	.st0{fill:#00467F;}
	.st1{fill:#A30046;}
</style>
<g>
	<path class="st0" d="M11.24,16.14l0.57-4.65c0.33,0.3,0.66,0.56,1.02,0.78c1.99,1.22,3.91,1.2,4.82,0.63
		c0.71-0.47,0.71-1.34-0.07-1.9c-0.14-0.12-0.31-0.21-0.47-0.31l-1.83-1.03c-0.38-0.21-0.71-0.44-1.04-0.7
		c-2.35-1.92-2.02-5.89,1.21-7.79c0.47-0.26,0.97-0.49,1.47-0.66c3.2-1.06,6.36-0.44,8.52,1.38l-0.62,5.09
		c-0.21-0.38-0.45-0.7-0.74-1.01c-1.19-1.29-2.66-1.86-3.56-1.74c-0.83,0.09-1.26,0.42-1.4,0.96c-0.19,0.64,0.07,1.13,1.3,1.95
		c0.17,0.1,0.33,0.21,0.52,0.3l1.52,0.87c0.31,0.19,0.62,0.4,0.92,0.61c2.02,1.5,2.23,4.39-0.21,6.55
		c-1.66,1.43-4.58,2.32-7.97,1.92C13.8,17.22,12.5,16.82,11.24,16.14z"/>
	<path class="st0" d="M23.86,17.2L33.11,0.3h6.22l5.01,16.89h-6.86l-0.55-2.75H32l-1.23,2.75C30.74,17.2,23.86,17.2,23.86,17.2z
		 M36.46,10.65l-0.74-3.49l-0.14-0.49c-0.05-0.23-0.07-0.47-0.05-0.7c-0.07,0.35-0.14,0.54-0.22,0.7l-0.28,0.49l-1.64,3.49H36.46z"
		/>
	<path class="st0" d="M42.14,0.3h6.83l1.35,7.86l0.1,0.45c0.02,0.17,0.07,0.38,0.07,0.7l0.24-0.7l0.17-0.49l3.16-7.81h6.83
		L51.8,17.2H47L42.14,0.3z"/>
	<path class="st0" d="M54.69,17.2L63.94,0.3h6.21l5.01,16.89H68.3l-0.55-2.75h-4.93l-1.23,2.75C61.57,17.2,54.69,17.2,54.69,17.2z
		 M67.29,10.65l-0.74-3.49l-0.14-0.49c-0.05-0.23-0.07-0.47-0.05-0.7c-0.07,0.35-0.14,0.54-0.21,0.7l-0.29,0.49l-1.64,3.49H67.29z"
		/>
	<path class="st0" d="M76.01,17.2L78.1,0.3h5.15l5.5,7.65c0.1,0.14,0.19,0.3,0.29,0.61l0.07,0.28l0.02,0.16l1.09-8.7h6.12
		L94.26,17.2h-5.27l-5.43-7.53c-0.24-0.31-0.36-0.68-0.33-1.03l-1.07,8.56H76.01z"/>
	<path class="st0" d="M97.21,17.2L99.29,0.3h5.15l5.5,7.65c0.1,0.14,0.19,0.3,0.29,0.61l0.07,0.28l0.02,0.16l1.09-8.7h6.12
		l-2.09,16.89h-5.27l-5.43-7.53c-0.24-0.31-0.36-0.68-0.33-1.03l-1.07,8.56H97.21z"/>
	<path class="st0" d="M116.4,17.2l9.25-16.89h6.22l5,16.89h-6.85l-0.55-2.75h-4.93l-1.24,2.75C123.27,17.2,116.4,17.2,116.4,17.2z
		 M128.99,10.65l-0.73-3.49l-0.14-0.49c-0.05-0.23-0.07-0.47-0.05-0.7c-0.07,0.35-0.14,0.54-0.21,0.7l-0.28,0.49l-1.64,3.49H128.99z
		"/>
	<path class="st0" d="M137.86,17.2l2.09-16.89h6.36l-0.76,6.19h5.39l0.78-6.19h6.36l-2.11,16.89h-6.31l0.78-6.34h-5.46l-0.78,6.34
		H137.86z"/>
	<g>
		<path class="st0" d="M0,34.96l2.09-16.89h6.36l-0.76,6.2h5.39l0.78-6.2h6.36L18.1,34.96h-6.31l0.78-6.34H7.12l-0.78,6.34H0z"/>
		<path class="st0" d="M19.81,34.96l2.09-16.89h6.33l-2.09,16.89H19.81z"/>
		<path class="st0" d="M27.83,34.96l2.09-16.89h6.33L34.68,30.6h5.91l-0.55,4.36H27.83z"/>
		<path class="st0" d="M38.34,22.55l0.54-4.48h15.51l-0.54,4.46h-4.6l-1.56,12.44h-6.31l1.54-12.41H38.34z"/>
		<path class="st0" d="M53.02,26.52c0.24-4.36,3.44-7.58,7.4-8.47c6.48-1.43,10.89,2.51,10.1,8.47c-0.57,4.39-3.44,7.58-7.4,8.47
			C56.65,36.42,52.74,31.63,53.02,26.52z M59.26,28.53c0.36,1.48,1.85,2.13,3.18,1.43c1.02-0.56,1.73-1.66,1.97-3.45
			c0.09-0.7,0.05-1.38-0.1-2.02c-0.38-1.5-1.87-2.13-3.2-1.43c-1.02,0.56-1.76,1.69-1.97,3.45C59.07,27.24,59.09,27.92,59.26,28.53z
			"/>
		<path class="st0" d="M71.07,34.96l2.09-16.89h5.15l5.5,7.65c0.1,0.14,0.19,0.31,0.29,0.61l0.07,0.28l0.02,0.16l1.09-8.71h6.12
			l-2.09,16.89h-5.27l-5.43-7.53c-0.24-0.3-0.35-0.68-0.33-1.03l-1.07,8.56H71.07z"/>
		<path class="st0" d="M97.88,34.96l2.09-16.89h6.36l-0.76,6.2h5.38l0.78-6.2h6.35l-2.11,16.89h-6.31l0.78-6.34H105l-0.78,6.34
			H97.88z"/>
		<path class="st0" d="M117.69,34.96l2.09-16.89h12.36l-0.52,4.15h-6.03l-0.26,2.11h5.41l-0.5,4.09h-5.41l-0.31,2.34h6.19l-0.52,4.2
			H117.69z"/>
		<path class="st0" d="M130.35,34.96l9.25-16.89h6.21l5.01,16.89h-6.86l-0.55-2.75h-4.93l-1.23,2.75
			C137.23,34.96,130.35,34.96,130.35,34.96z M142.95,28.42l-0.74-3.5l-0.14-0.49c-0.05-0.23-0.07-0.47-0.05-0.7
			c-0.07,0.35-0.14,0.54-0.21,0.7l-0.29,0.49l-1.64,3.5H142.95z"/>
		<path class="st0" d="M151.18,34.96l2.09-16.89h8.71c0.57,0,1.16,0.08,1.73,0.21c4.36,1.05,6.78,5.56,4.91,10.67
			c-1.3,3.64-4.7,6.01-8.35,6.01H151.18z M159.34,30.58c1.4,0,2.75-1.01,3.37-2.77c1.18-3.47-0.26-5.44-2.63-5.44h-1l-1.02,8.21
			H159.34z"/>
	</g>
</g>
<g>
	<g>
		<polygon class="st1" points="0.82,37.78 0.82,43.34 1.95,43.34 1.95,37.78 1.76,37.78 		"/>
		<path class="st1" d="M11.87,37.78c0,0,0,2.92,0,3.7c-0.55-0.62-3.27-3.7-3.27-3.7H7.72v5.56h1.09c0,0,0-2.9,0-3.67
			c0.55,0.63,3.23,3.67,3.23,3.67h0.92v-5.56h-0.19H11.87z"/>
		<path class="st1" d="M18.29,37.78v1.05c0,0,1.51,0,1.81,0c0,0.35,0,4.52,0,4.52h1.14c0,0,0-4.17,0-4.52c0.31,0,1.82,0,1.82,0
			v-1.05h-0.19H18.29z"/>
		<path class="st1" d="M29.51,41.06c0.32,0,2.14,0,2.14,0v-1.05c0,0-1.83,0-2.14,0c0-0.25,0-0.93,0-1.19c0.32,0,2.22,0,2.22,0v-1.05
			h-0.19h-3.17v5.56h3.43v-1.05c0,0-1.97,0-2.29,0C29.51,42.04,29.51,41.32,29.51,41.06z"/>
		<path class="st1" d="M40.92,42.03c-0.35-0.57-0.65-1-1.04-1.33c0.47-0.28,0.78-0.71,0.78-1.28c0-1-0.75-1.64-1.91-1.64h-1.32
			h-0.19v5.56h1.14c0,0,0-1.93,0-2.25c0.06,0,0.13,0,0.13,0c0.3,0,0.57,0.08,1.23,1.1l0.75,1.15h1.38l-0.3-0.41L40.92,42.03z
			 M38.37,38.79c0.14,0,0.29,0,0.29,0c0.74,0,0.83,0.32,0.84,0.6c0,0.01,0,0.01,0,0.02c0,0.18-0.05,0.33-0.15,0.43
			c-0.14,0.14-0.37,0.2-0.69,0.2c0,0-0.15,0-0.29,0C38.37,39.79,38.37,39.05,38.37,38.79z"/>
		<path class="st1" d="M51,37.78c0,0,0,2.92,0,3.7c-0.55-0.62-3.27-3.7-3.27-3.7h-0.88v5.56h1.09c0,0,0-2.9,0-3.67
			c0.55,0.63,3.22,3.67,3.22,3.67h0.93v-5.56H51.9H51z"/>
		<path class="st1" d="M60.25,37.75H59.6l-2.42,5.59h1.19c0,0,0.57-1.33,0.66-1.53c0.21,0,1.77,0,1.98,0
			c0.09,0.19,0.7,1.53,0.7,1.53h1.19l-2.52-5.59H60.25z M59.48,40.77c0.12-0.29,0.33-0.8,0.5-1.21c0.18,0.41,0.41,0.91,0.54,1.21
			C60.22,40.77,59.78,40.77,59.48,40.77z"/>
		<path class="st1" d="M66.77,37.78v1.05c0,0,1.51,0,1.81,0c0,0.35,0,4.52,0,4.52h1.14c0,0,0-4.17,0-4.52c0.31,0,1.82,0,1.82,0
			v-1.05h-0.19H66.77z"/>
		<polygon class="st1" points="76.86,37.78 76.86,43.34 78,43.34 78,37.78 77.81,37.78 		"/>
		<path class="st1" d="M86.55,37.71c-1.71,0-3.01,1.23-3.01,2.85c0,1.62,1.29,2.85,2.99,2.85c1.99,0,3.03-1.43,3.03-2.85
			C89.56,38.91,88.3,37.71,86.55,37.71z M86.55,38.77c1.07,0,1.85,0.75,1.85,1.79c0,1.03-0.78,1.79-1.85,1.79
			c-1.07,0-1.84-0.75-1.84-1.79C84.71,39.52,85.48,38.77,86.55,38.77z"/>
	</g>
	<g>
		<path class="st1" d="M98.86,37.78c0,0,0,2.92,0,3.7c-0.55-0.62-3.27-3.7-3.27-3.7h-0.88v5.56h1.09c0,0,0-2.9,0-3.67
			c0.55,0.63,3.23,3.67,3.23,3.67h0.92v-5.56h-0.19H98.86z"/>
		<path class="st1" d="M108.12,37.75h-0.66l-2.42,5.59h1.18c0,0,0.57-1.33,0.66-1.53c0.21,0,1.77,0,1.98,0
			c0.09,0.19,0.7,1.53,0.7,1.53h1.19l-2.51-5.59H108.12z M107.35,40.77c0.12-0.29,0.33-0.8,0.5-1.21c0.18,0.41,0.41,0.91,0.54,1.21
			C108.08,40.77,107.65,40.77,107.35,40.77z"/>
		<path class="st1" d="M116.98,37.78h-0.19h-0.95v5.56h3.51v-1.05c0,0-2.04,0-2.37,0C116.98,41.95,116.98,37.78,116.98,37.78z"/>
	</g>
</g>
<path class="st0" d="M165.15,45.13l-0.17-0.35l-1.2,0.78l-19.74,0.47c-0.4-0.28-0.9-0.45-1.43-0.45c-0.55,0-1.07,0.18-1.48,0.49
	l-7.89-0.07l-0.21-3.7c-0.03-2.85-1.47-4.59-3.39-4.59c-1.92,0-3.36,1.71-3.39,4.59l-0.21,3.7l-7.85,0.07
	c-0.42-0.31-0.93-0.49-1.48-0.49c-0.53,0-1.02,0.17-1.43,0.45l-19.74-0.47l-1.2-0.78l-0.17,0.35l1.29,1.03l8.92,0.32l0.15,0.8
	l0.68,0.08l0.08,0.45l9.07,1.13c0.35,0.96,1.27,1.66,2.35,1.66c0.86,0,1.63-0.44,2.08-1.11l1.26,0.16l0.02,0.47l6.15,1.07
	c0.63,1.59,2.03,2.46,3.43,2.46c1.38,0,2.77-0.89,3.41-2.45l6.2-1.08l0.02-0.47l1.26-0.16c0.45,0.67,1.21,1.11,2.07,1.11
	c1.08,0,2-0.69,2.35-1.66l9.07-1.13l0.08-0.45l0.68-0.08l0.15-0.8l8.92-0.32L165.15,45.13z"/>
<g>
	<path class="st0" d="M159.68,2.12V2.11c0-1.05,0.85-1.93,1.93-1.93s1.92,0.88,1.92,1.92v0.01c0,1.05-0.85,1.93-1.93,1.93
		C160.51,4.04,159.68,3.17,159.68,2.12z M163.29,2.11V2.1c0-0.94-0.73-1.71-1.69-1.71c-0.97,0-1.7,0.78-1.7,1.72v0.01
		c0,0.94,0.73,1.71,1.69,1.71C162.56,3.83,163.29,3.05,163.29,2.11z M160.75,1.03h0.95c0.32,0,0.55,0.08,0.69,0.23
		c0.12,0.12,0.17,0.27,0.17,0.47v0.01c0,0.31-0.16,0.52-0.42,0.63l0.49,0.71h-0.65l-0.41-0.62h-0.01h-0.24v0.62h-0.57V1.03z
		 M161.69,2.02c0.2,0,0.31-0.09,0.31-0.24V1.77c0-0.16-0.12-0.24-0.31-0.24h-0.37v0.49H161.69z"/>
</g>
</svg>
