<svg xmlns="http://www.w3.org/2000/svg" viewBox="0 0 200 200">
  <!-- Background circle -->
  <circle cx="100" cy="100" r="95" fill="#FF4500" />
  
  <!-- Astronaut helmet -->
  <circle cx="100" cy="100" r="50" fill="#FFFFFF" opacity="0.8" />
  <circle cx="100" cy="100" r="45" fill="#333344" opacity="0.7" />
  
  <!-- Face inside helmet -->
  <circle cx="100" cy="100" r="30" fill="#FFD6B1" />
  
  <!-- Eyes -->
  <ellipse cx="90" cy="95" rx="5" ry="6" fill="#FFFFFF" />
  <ellipse cx="110" cy="95" rx="5" ry="6" fill="#FFFFFF" />
  <circle cx="90" cy="95" r="2" fill="#000000" />
  <circle cx="110" cy="95" r="2" fill="#000000" />
  
  <!-- Smile -->
  <path d="M90 110 Q100 120, 110 110" stroke="#333333" stroke-width="2" fill="none" />
  
  <!-- Helmet details -->
  <circle cx="100" cy="100" r="50" fill="none" stroke="#DDDDDD" stroke-width="3" />
  <path d="M100 50 L100 60 M50 100 L60 100 M100 150 L100 140 M150 100 L140 100" stroke="#DDDDDD" stroke-width="3" />
  
  <!-- Space suit suggestion -->
  <path d="M70 150 Q100 160, 130 150 L140 180 Q100 190, 60 180 Z" fill="#DDDDDD" />
</svg>
